# xmcd CD database file generated by Grip 3.0.5
# 
# Track frame offsets:
#       150
#       15104
#       26304
#       41056
#       52499
#       63168
#       74997
#       84939
#       97538
#       109333
#       121990
#       135115
#       149138
#       158002
#       167219
#       175561
#       189188
#       202607
# 
# Disc length: 2809 seconds
# 
# Revision: 1
# Processed by: cddbd v1.5.1PL0 Copyright (c) Steve Scherf et al.
# Submitted via: Grip 3.0.5
# 
DISCID=e30af712
DTITLE=Willie Nelson - Night life
DYEAR=2002
DGENRE=Country
TTITLE0=Face of a fighter
TTITLE1=Suffer in silence
TTITLE2=And so will you my love
TTITLE3=December days
TTITLE4=Go away
TTITLE5=Night life
TTITLE6=Pride wins again
TTITLE7=Any old arms won't do
TTITLE8=End of understanding
TTITLE9=I just don't understand
TTITLE10=You'll always have someone
TTITLE11=What can you do to me now
TTITLE12=Waiting time
TTITLE13=One step beyond
TTITLE14=Slow down old world
TTITLE15=No tomorrow in sight
TTITLE16=If you can't undo the wrong, undo the right
TTITLE17=You wouldn't cross the street to say goodbye
EXTD=
EXTT0=
EXTT1=
EXTT2=
EXTT3=
EXTT4=
EXTT5=
EXTT6=
EXTT7=
EXTT8=
EXTT9=
EXTT10=
EXTT11=
EXTT12=
EXTT13=
EXTT14=
EXTT15=
EXTT16=
EXTT17=
PLAYORDER=
